<mxfile host="Electron" modified="2024-04-25T10:58:34.619Z" agent="Mozilla/5.0 (X11; Linux x86_64) AppleWebKit/537.36 (KHTML, like Gecko) draw.io/24.2.5 Chrome/120.0.6099.109 Electron/28.1.0 Safari/537.36" etag="nxdvh4YoHAp5S_abPYCK" version="24.2.5" type="device">
  <diagram id="C5RBs43oDa-KdzZeNtuy" name="Page-1">
    <mxGraphModel dx="1588" dy="2256" grid="1" gridSize="10" guides="1" tooltips="1" connect="1" arrows="1" fold="1" page="1" pageScale="1" pageWidth="1280" pageHeight="1070" math="0" shadow="0">
      <root>
        <mxCell id="WIyWlLk6GJQsqaUBKTNV-0" />
        <mxCell id="WIyWlLk6GJQsqaUBKTNV-1" parent="WIyWlLk6GJQsqaUBKTNV-0" />
        <mxCell id="oAeWeOyywlavheIQp_EQ-43" value="Employee" style="swimlane;fontStyle=1;align=center;verticalAlign=top;childLayout=stackLayout;horizontal=1;startSize=30;horizontalStack=0;resizeParent=1;resizeParentMax=0;resizeLast=0;collapsible=0;marginBottom=0;whiteSpace=wrap;html=1;fontSize=14;" parent="WIyWlLk6GJQsqaUBKTNV-1" vertex="1">
          <mxGeometry x="40" y="60" width="240" height="860" as="geometry" />
        </mxCell>
        <mxCell id="oAeWeOyywlavheIQp_EQ-44" value="- firstName: String" style="text;strokeColor=none;fillColor=none;align=left;verticalAlign=middle;spacingLeft=4;spacingRight=4;overflow=hidden;rotatable=0;points=[[0,0.5],[1,0.5]];portConstraint=eastwest;whiteSpace=wrap;html=1;fontSize=10;fontFamily=Courier New;" parent="oAeWeOyywlavheIQp_EQ-43" vertex="1">
          <mxGeometry y="30" width="240" height="20" as="geometry" />
        </mxCell>
        <mxCell id="rgos0depHT-uJ3BXyTeP-0" value="- lastName: String" style="text;strokeColor=none;fillColor=none;align=left;verticalAlign=middle;spacingLeft=4;spacingRight=4;overflow=hidden;rotatable=0;points=[[0,0.5],[1,0.5]];portConstraint=eastwest;whiteSpace=wrap;html=1;fontSize=10;fontFamily=Courier New;" parent="oAeWeOyywlavheIQp_EQ-43" vertex="1">
          <mxGeometry y="50" width="240" height="20" as="geometry" />
        </mxCell>
        <mxCell id="rgos0depHT-uJ3BXyTeP-2" value="- phoneNumber: String" style="text;strokeColor=none;fillColor=none;align=left;verticalAlign=middle;spacingLeft=4;spacingRight=4;overflow=hidden;rotatable=0;points=[[0,0.5],[1,0.5]];portConstraint=eastwest;whiteSpace=wrap;html=1;fontSize=10;fontFamily=Courier New;" parent="oAeWeOyywlavheIQp_EQ-43" vertex="1">
          <mxGeometry y="70" width="240" height="20" as="geometry" />
        </mxCell>
        <mxCell id="rgos0depHT-uJ3BXyTeP-3" value="- address: String" style="text;strokeColor=none;fillColor=none;align=left;verticalAlign=middle;spacingLeft=4;spacingRight=4;overflow=hidden;rotatable=0;points=[[0,0.5],[1,0.5]];portConstraint=eastwest;whiteSpace=wrap;html=1;fontSize=10;fontFamily=Courier New;" parent="oAeWeOyywlavheIQp_EQ-43" vertex="1">
          <mxGeometry y="90" width="240" height="20" as="geometry" />
        </mxCell>
        <mxCell id="rgos0depHT-uJ3BXyTeP-1" value="- city: String" style="text;strokeColor=none;fillColor=none;align=left;verticalAlign=middle;spacingLeft=4;spacingRight=4;overflow=hidden;rotatable=0;points=[[0,0.5],[1,0.5]];portConstraint=eastwest;whiteSpace=wrap;html=1;fontSize=10;fontFamily=Courier New;" parent="oAeWeOyywlavheIQp_EQ-43" vertex="1">
          <mxGeometry y="110" width="240" height="20" as="geometry" />
        </mxCell>
        <mxCell id="9212bw_EbjLoRZrMJDlf-0" value="- state: State" style="text;strokeColor=none;fillColor=none;align=left;verticalAlign=middle;spacingLeft=4;spacingRight=4;overflow=hidden;rotatable=0;points=[[0,0.5],[1,0.5]];portConstraint=eastwest;whiteSpace=wrap;html=1;fontSize=10;fontFamily=Courier New;" parent="oAeWeOyywlavheIQp_EQ-43" vertex="1">
          <mxGeometry y="130" width="240" height="20" as="geometry" />
        </mxCell>
        <mxCell id="9212bw_EbjLoRZrMJDlf-1" value="- employeeId: Int" style="text;strokeColor=none;fillColor=none;align=left;verticalAlign=middle;spacingLeft=4;spacingRight=4;overflow=hidden;rotatable=0;points=[[0,0.5],[1,0.5]];portConstraint=eastwest;whiteSpace=wrap;html=1;fontSize=10;fontFamily=Courier New;" parent="oAeWeOyywlavheIQp_EQ-43" vertex="1">
          <mxGeometry y="150" width="240" height="20" as="geometry" />
        </mxCell>
        <mxCell id="9212bw_EbjLoRZrMJDlf-3" value="- employeeTitle: String" style="text;strokeColor=none;fillColor=none;align=left;verticalAlign=middle;spacingLeft=4;spacingRight=4;overflow=hidden;rotatable=0;points=[[0,0.5],[1,0.5]];portConstraint=eastwest;whiteSpace=wrap;html=1;fontSize=10;fontFamily=Courier New;" parent="oAeWeOyywlavheIQp_EQ-43" vertex="1">
          <mxGeometry y="170" width="240" height="20" as="geometry" />
        </mxCell>
        <mxCell id="9212bw_EbjLoRZrMJDlf-2" value="- department: String" style="text;strokeColor=none;fillColor=none;align=left;verticalAlign=middle;spacingLeft=4;spacingRight=4;overflow=hidden;rotatable=0;points=[[0,0.5],[1,0.5]];portConstraint=eastwest;whiteSpace=wrap;html=1;fontSize=10;fontFamily=Courier New;" parent="oAeWeOyywlavheIQp_EQ-43" vertex="1">
          <mxGeometry y="190" width="240" height="20" as="geometry" />
        </mxCell>
        <mxCell id="9212bw_EbjLoRZrMJDlf-4" value="- salary: double" style="text;strokeColor=none;fillColor=none;align=left;verticalAlign=middle;spacingLeft=4;spacingRight=4;overflow=hidden;rotatable=0;points=[[0,0.5],[1,0.5]];portConstraint=eastwest;whiteSpace=wrap;html=1;fontSize=10;fontFamily=Courier New;" parent="oAeWeOyywlavheIQp_EQ-43" vertex="1">
          <mxGeometry y="210" width="240" height="20" as="geometry" />
        </mxCell>
        <mxCell id="9212bw_EbjLoRZrMJDlf-5" value="- hireDate: LocalDate" style="text;strokeColor=none;fillColor=none;align=left;verticalAlign=middle;spacingLeft=4;spacingRight=4;overflow=hidden;rotatable=0;points=[[0,0.5],[1,0.5]];portConstraint=eastwest;whiteSpace=wrap;html=1;fontSize=10;fontFamily=Courier New;" parent="oAeWeOyywlavheIQp_EQ-43" vertex="1">
          <mxGeometry y="230" width="240" height="20" as="geometry" />
        </mxCell>
        <mxCell id="oAeWeOyywlavheIQp_EQ-49" value="" style="line;strokeWidth=1;fillColor=none;align=left;verticalAlign=middle;spacingTop=-1;spacingLeft=3;spacingRight=3;rotatable=0;labelPosition=right;points=[];portConstraint=eastwest;strokeColor=inherit;fontSize=10;fontFamily=Courier New;" parent="oAeWeOyywlavheIQp_EQ-43" vertex="1">
          <mxGeometry y="250" width="240" height="8" as="geometry" />
        </mxCell>
        <mxCell id="oAeWeOyywlavheIQp_EQ-51" value="+ Employee(&lt;div&gt;&amp;nbsp; &amp;nbsp; firstName: String,&lt;/div&gt;&lt;div&gt;&amp;nbsp; &amp;nbsp; lastName: String,&lt;/div&gt;&lt;div&gt;&amp;nbsp; &amp;nbsp; phoneNumber: String,&lt;/div&gt;&lt;div&gt;&amp;nbsp; &amp;nbsp; address: String,&lt;/div&gt;&lt;div&gt;&amp;nbsp; &amp;nbsp; city: String,&lt;/div&gt;&lt;div&gt;&amp;nbsp; &amp;nbsp; state: State,&lt;/div&gt;&lt;div&gt;&amp;nbsp; &amp;nbsp; employeeId: Int,&lt;/div&gt;&lt;div&gt;&amp;nbsp; &amp;nbsp; employeeTitle: String,&lt;/div&gt;&lt;div&gt;&amp;nbsp; &amp;nbsp; department: String,&lt;/div&gt;&lt;div&gt;&amp;nbsp; &amp;nbsp; salary: double,&lt;/div&gt;&lt;div&gt;&amp;nbsp; &amp;nbsp; hireDate: LocalDate)&lt;/div&gt;" style="text;strokeColor=none;fillColor=none;align=left;verticalAlign=middle;spacingLeft=4;spacingRight=4;overflow=hidden;rotatable=0;points=[[0,0.5],[1,0.5]];portConstraint=eastwest;whiteSpace=wrap;html=1;fontSize=10;fontFamily=Courier New;" parent="oAeWeOyywlavheIQp_EQ-43" vertex="1">
          <mxGeometry y="258" width="240" height="152" as="geometry" />
        </mxCell>
        <mxCell id="bbliB93K8uDW3tGXe22l-0" value="+&amp;nbsp;getFirstName(&lt;span style=&quot;background-color: initial; font-size: 10px;&quot;&gt;): String&lt;/span&gt;" style="text;strokeColor=none;fillColor=none;align=left;verticalAlign=middle;spacingLeft=4;spacingRight=4;overflow=hidden;rotatable=0;points=[[0,0.5],[1,0.5]];portConstraint=eastwest;whiteSpace=wrap;html=1;fontSize=10;fontFamily=Courier New;" parent="oAeWeOyywlavheIQp_EQ-43" vertex="1">
          <mxGeometry y="410" width="240" height="18" as="geometry" />
        </mxCell>
        <mxCell id="oAeWeOyywlavheIQp_EQ-54" value="+&amp;nbsp;setFirstName(name: String&lt;span style=&quot;background-color: initial; font-size: 10px;&quot;&gt;)&lt;/span&gt;" style="text;strokeColor=none;fillColor=none;align=left;verticalAlign=middle;spacingLeft=4;spacingRight=4;overflow=hidden;rotatable=0;points=[[0,0.5],[1,0.5]];portConstraint=eastwest;whiteSpace=wrap;html=1;fontSize=10;fontFamily=Courier New;" parent="oAeWeOyywlavheIQp_EQ-43" vertex="1">
          <mxGeometry y="428" width="240" height="18" as="geometry" />
        </mxCell>
        <mxCell id="bbliB93K8uDW3tGXe22l-1" value="+ getLastName(&lt;span style=&quot;background-color: initial; font-size: 10px;&quot;&gt;): String&lt;/span&gt;" style="text;strokeColor=none;fillColor=none;align=left;verticalAlign=middle;spacingLeft=4;spacingRight=4;overflow=hidden;rotatable=0;points=[[0,0.5],[1,0.5]];portConstraint=eastwest;whiteSpace=wrap;html=1;fontSize=10;fontFamily=Courier New;" parent="oAeWeOyywlavheIQp_EQ-43" vertex="1">
          <mxGeometry y="446" width="240" height="18" as="geometry" />
        </mxCell>
        <mxCell id="oAeWeOyywlavheIQp_EQ-55" value="+&amp;nbsp;setLastName(name: String)" style="text;strokeColor=none;fillColor=none;align=left;verticalAlign=middle;spacingLeft=4;spacingRight=4;overflow=hidden;rotatable=0;points=[[0,0.5],[1,0.5]];portConstraint=eastwest;whiteSpace=wrap;html=1;fontSize=10;fontFamily=Courier New;" parent="oAeWeOyywlavheIQp_EQ-43" vertex="1">
          <mxGeometry y="464" width="240" height="18" as="geometry" />
        </mxCell>
        <mxCell id="bbliB93K8uDW3tGXe22l-2" value="+ getPhoneNumber(&lt;span style=&quot;background-color: initial; font-size: 10px;&quot;&gt;): String&lt;/span&gt;" style="text;strokeColor=none;fillColor=none;align=left;verticalAlign=middle;spacingLeft=4;spacingRight=4;overflow=hidden;rotatable=0;points=[[0,0.5],[1,0.5]];portConstraint=eastwest;whiteSpace=wrap;html=1;fontSize=10;fontFamily=Courier New;" parent="oAeWeOyywlavheIQp_EQ-43" vertex="1">
          <mxGeometry y="482" width="240" height="18" as="geometry" />
        </mxCell>
        <mxCell id="oAeWeOyywlavheIQp_EQ-56" value="+&amp;nbsp;setPhoneNumber(number: String)" style="text;strokeColor=none;fillColor=none;align=left;verticalAlign=middle;spacingLeft=4;spacingRight=4;overflow=hidden;rotatable=0;points=[[0,0.5],[1,0.5]];portConstraint=eastwest;whiteSpace=wrap;html=1;fontSize=10;fontFamily=Courier New;" parent="oAeWeOyywlavheIQp_EQ-43" vertex="1">
          <mxGeometry y="500" width="240" height="18" as="geometry" />
        </mxCell>
        <mxCell id="bbliB93K8uDW3tGXe22l-3" value="+&amp;nbsp;getAddress(&lt;span style=&quot;background-color: initial; font-size: 10px;&quot;&gt;): String&lt;/span&gt;" style="text;strokeColor=none;fillColor=none;align=left;verticalAlign=middle;spacingLeft=4;spacingRight=4;overflow=hidden;rotatable=0;points=[[0,0.5],[1,0.5]];portConstraint=eastwest;whiteSpace=wrap;html=1;fontSize=10;fontFamily=Courier New;" parent="oAeWeOyywlavheIQp_EQ-43" vertex="1">
          <mxGeometry y="518" width="240" height="18" as="geometry" />
        </mxCell>
        <mxCell id="rgos0depHT-uJ3BXyTeP-5" value="+&amp;nbsp;setAddress(address: String)" style="text;strokeColor=none;fillColor=none;align=left;verticalAlign=middle;spacingLeft=4;spacingRight=4;overflow=hidden;rotatable=0;points=[[0,0.5],[1,0.5]];portConstraint=eastwest;whiteSpace=wrap;html=1;fontSize=10;fontFamily=Courier New;" parent="oAeWeOyywlavheIQp_EQ-43" vertex="1">
          <mxGeometry y="536" width="240" height="18" as="geometry" />
        </mxCell>
        <mxCell id="bbliB93K8uDW3tGXe22l-4" value="+ getCity(&lt;span style=&quot;background-color: initial; font-size: 10px;&quot;&gt;): String&lt;/span&gt;" style="text;strokeColor=none;fillColor=none;align=left;verticalAlign=middle;spacingLeft=4;spacingRight=4;overflow=hidden;rotatable=0;points=[[0,0.5],[1,0.5]];portConstraint=eastwest;whiteSpace=wrap;html=1;fontSize=10;fontFamily=Courier New;" parent="oAeWeOyywlavheIQp_EQ-43" vertex="1">
          <mxGeometry y="554" width="240" height="18" as="geometry" />
        </mxCell>
        <mxCell id="rgos0depHT-uJ3BXyTeP-4" value="+&amp;nbsp;setCity(city: String)" style="text;strokeColor=none;fillColor=none;align=left;verticalAlign=middle;spacingLeft=4;spacingRight=4;overflow=hidden;rotatable=0;points=[[0,0.5],[1,0.5]];portConstraint=eastwest;whiteSpace=wrap;html=1;fontSize=10;fontFamily=Courier New;" parent="oAeWeOyywlavheIQp_EQ-43" vertex="1">
          <mxGeometry y="572" width="240" height="18" as="geometry" />
        </mxCell>
        <mxCell id="9212bw_EbjLoRZrMJDlf-6" value="+ getState(&lt;span style=&quot;background-color: initial; font-size: 10px;&quot;&gt;): State&lt;/span&gt;" style="text;strokeColor=none;fillColor=none;align=left;verticalAlign=middle;spacingLeft=4;spacingRight=4;overflow=hidden;rotatable=0;points=[[0,0.5],[1,0.5]];portConstraint=eastwest;whiteSpace=wrap;html=1;fontSize=10;fontFamily=Courier New;" parent="oAeWeOyywlavheIQp_EQ-43" vertex="1">
          <mxGeometry y="590" width="240" height="18" as="geometry" />
        </mxCell>
        <mxCell id="9212bw_EbjLoRZrMJDlf-7" value="+&amp;nbsp;setState(city: State)" style="text;strokeColor=none;fillColor=none;align=left;verticalAlign=middle;spacingLeft=4;spacingRight=4;overflow=hidden;rotatable=0;points=[[0,0.5],[1,0.5]];portConstraint=eastwest;whiteSpace=wrap;html=1;fontSize=10;fontFamily=Courier New;" parent="oAeWeOyywlavheIQp_EQ-43" vertex="1">
          <mxGeometry y="608" width="240" height="18" as="geometry" />
        </mxCell>
        <mxCell id="9212bw_EbjLoRZrMJDlf-8" value="+ getEmployeeId(&lt;span style=&quot;background-color: initial; font-size: 10px;&quot;&gt;): Int&lt;/span&gt;" style="text;strokeColor=none;fillColor=none;align=left;verticalAlign=middle;spacingLeft=4;spacingRight=4;overflow=hidden;rotatable=0;points=[[0,0.5],[1,0.5]];portConstraint=eastwest;whiteSpace=wrap;html=1;fontSize=10;fontFamily=Courier New;" parent="oAeWeOyywlavheIQp_EQ-43" vertex="1">
          <mxGeometry y="626" width="240" height="18" as="geometry" />
        </mxCell>
        <mxCell id="9212bw_EbjLoRZrMJDlf-9" value="+&amp;nbsp;setEmployeeId(id: Int)" style="text;strokeColor=none;fillColor=none;align=left;verticalAlign=middle;spacingLeft=4;spacingRight=4;overflow=hidden;rotatable=0;points=[[0,0.5],[1,0.5]];portConstraint=eastwest;whiteSpace=wrap;html=1;fontSize=10;fontFamily=Courier New;" parent="oAeWeOyywlavheIQp_EQ-43" vertex="1">
          <mxGeometry y="644" width="240" height="18" as="geometry" />
        </mxCell>
        <mxCell id="9212bw_EbjLoRZrMJDlf-10" value="+ getEmployeeTitle(&lt;span style=&quot;background-color: initial; font-size: 10px;&quot;&gt;): String&lt;/span&gt;" style="text;strokeColor=none;fillColor=none;align=left;verticalAlign=middle;spacingLeft=4;spacingRight=4;overflow=hidden;rotatable=0;points=[[0,0.5],[1,0.5]];portConstraint=eastwest;whiteSpace=wrap;html=1;fontSize=10;fontFamily=Courier New;" parent="oAeWeOyywlavheIQp_EQ-43" vertex="1">
          <mxGeometry y="662" width="240" height="18" as="geometry" />
        </mxCell>
        <mxCell id="9212bw_EbjLoRZrMJDlf-11" value="+&amp;nbsp;setEmployeeTitle(title: String)" style="text;strokeColor=none;fillColor=none;align=left;verticalAlign=middle;spacingLeft=4;spacingRight=4;overflow=hidden;rotatable=0;points=[[0,0.5],[1,0.5]];portConstraint=eastwest;whiteSpace=wrap;html=1;fontSize=10;fontFamily=Courier New;" parent="oAeWeOyywlavheIQp_EQ-43" vertex="1">
          <mxGeometry y="680" width="240" height="18" as="geometry" />
        </mxCell>
        <mxCell id="9212bw_EbjLoRZrMJDlf-12" value="+ getDepartment(&lt;span style=&quot;background-color: initial; font-size: 10px;&quot;&gt;): String&lt;/span&gt;" style="text;strokeColor=none;fillColor=none;align=left;verticalAlign=middle;spacingLeft=4;spacingRight=4;overflow=hidden;rotatable=0;points=[[0,0.5],[1,0.5]];portConstraint=eastwest;whiteSpace=wrap;html=1;fontSize=10;fontFamily=Courier New;" parent="oAeWeOyywlavheIQp_EQ-43" vertex="1">
          <mxGeometry y="698" width="240" height="18" as="geometry" />
        </mxCell>
        <mxCell id="9212bw_EbjLoRZrMJDlf-13" value="+&amp;nbsp;setDepartment(department: String)" style="text;strokeColor=none;fillColor=none;align=left;verticalAlign=middle;spacingLeft=4;spacingRight=4;overflow=hidden;rotatable=0;points=[[0,0.5],[1,0.5]];portConstraint=eastwest;whiteSpace=wrap;html=1;fontSize=10;fontFamily=Courier New;" parent="oAeWeOyywlavheIQp_EQ-43" vertex="1">
          <mxGeometry y="716" width="240" height="18" as="geometry" />
        </mxCell>
        <mxCell id="9212bw_EbjLoRZrMJDlf-14" value="+ getSalary(&lt;span style=&quot;background-color: initial; font-size: 10px;&quot;&gt;): Double&lt;/span&gt;" style="text;strokeColor=none;fillColor=none;align=left;verticalAlign=middle;spacingLeft=4;spacingRight=4;overflow=hidden;rotatable=0;points=[[0,0.5],[1,0.5]];portConstraint=eastwest;whiteSpace=wrap;html=1;fontSize=10;fontFamily=Courier New;" parent="oAeWeOyywlavheIQp_EQ-43" vertex="1">
          <mxGeometry y="734" width="240" height="18" as="geometry" />
        </mxCell>
        <mxCell id="9212bw_EbjLoRZrMJDlf-15" value="+&amp;nbsp;setSalary(salary: Double)" style="text;strokeColor=none;fillColor=none;align=left;verticalAlign=middle;spacingLeft=4;spacingRight=4;overflow=hidden;rotatable=0;points=[[0,0.5],[1,0.5]];portConstraint=eastwest;whiteSpace=wrap;html=1;fontSize=10;fontFamily=Courier New;" parent="oAeWeOyywlavheIQp_EQ-43" vertex="1">
          <mxGeometry y="752" width="240" height="18" as="geometry" />
        </mxCell>
        <mxCell id="9212bw_EbjLoRZrMJDlf-16" value="+ getHireDate(&lt;span style=&quot;background-color: initial; font-size: 10px;&quot;&gt;): LocalDate&lt;/span&gt;" style="text;strokeColor=none;fillColor=none;align=left;verticalAlign=middle;spacingLeft=4;spacingRight=4;overflow=hidden;rotatable=0;points=[[0,0.5],[1,0.5]];portConstraint=eastwest;whiteSpace=wrap;html=1;fontSize=10;fontFamily=Courier New;" parent="oAeWeOyywlavheIQp_EQ-43" vertex="1">
          <mxGeometry y="770" width="240" height="18" as="geometry" />
        </mxCell>
        <mxCell id="9212bw_EbjLoRZrMJDlf-17" value="+&amp;nbsp;setHireDate(date: LocalDate)" style="text;strokeColor=none;fillColor=none;align=left;verticalAlign=middle;spacingLeft=4;spacingRight=4;overflow=hidden;rotatable=0;points=[[0,0.5],[1,0.5]];portConstraint=eastwest;whiteSpace=wrap;html=1;fontSize=10;fontFamily=Courier New;" parent="oAeWeOyywlavheIQp_EQ-43" vertex="1">
          <mxGeometry y="788" width="240" height="18" as="geometry" />
        </mxCell>
        <mxCell id="bbliB93K8uDW3tGXe22l-5" value="+&amp;nbsp;equals(Object o&lt;span style=&quot;background-color: initial; font-size: 10px;&quot;&gt;): boolean&lt;/span&gt;" style="text;strokeColor=none;fillColor=none;align=left;verticalAlign=middle;spacingLeft=4;spacingRight=4;overflow=hidden;rotatable=0;points=[[0,0.5],[1,0.5]];portConstraint=eastwest;whiteSpace=wrap;html=1;fontSize=10;fontFamily=Courier New;" parent="oAeWeOyywlavheIQp_EQ-43" vertex="1">
          <mxGeometry y="806" width="240" height="18" as="geometry" />
        </mxCell>
        <mxCell id="oAeWeOyywlavheIQp_EQ-57" value="+&amp;nbsp;toString(&lt;span style=&quot;background-color: initial; font-size: 10px;&quot;&gt;): String&lt;/span&gt;" style="text;strokeColor=none;fillColor=none;align=left;verticalAlign=middle;spacingLeft=4;spacingRight=4;overflow=hidden;rotatable=0;points=[[0,0.5],[1,0.5]];portConstraint=eastwest;whiteSpace=wrap;html=1;fontSize=10;fontFamily=Courier New;" parent="oAeWeOyywlavheIQp_EQ-43" vertex="1">
          <mxGeometry y="824" width="240" height="18" as="geometry" />
        </mxCell>
        <mxCell id="bbliB93K8uDW3tGXe22l-6" value="+&amp;nbsp;hashCode(&lt;span style=&quot;background-color: initial; font-size: 10px;&quot;&gt;): Int&lt;/span&gt;" style="text;strokeColor=none;fillColor=none;align=left;verticalAlign=middle;spacingLeft=4;spacingRight=4;overflow=hidden;rotatable=0;points=[[0,0.5],[1,0.5]];portConstraint=eastwest;whiteSpace=wrap;html=1;fontSize=10;fontFamily=Courier New;" parent="oAeWeOyywlavheIQp_EQ-43" vertex="1">
          <mxGeometry y="842" width="240" height="18" as="geometry" />
        </mxCell>
        <mxCell id="9212bw_EbjLoRZrMJDlf-84" style="edgeStyle=orthogonalEdgeStyle;rounded=0;orthogonalLoop=1;jettySize=auto;html=1;exitX=0.5;exitY=0;exitDx=0;exitDy=0;entryX=0.5;entryY=0;entryDx=0;entryDy=0;" parent="WIyWlLk6GJQsqaUBKTNV-1" source="VrE6sZuMcQ_JEsaJTfix-0" target="OGeXfidwOHUhbuxbb3Ev-76" edge="1">
          <mxGeometry relative="1" as="geometry">
            <Array as="points">
              <mxPoint x="1120" y="40" />
              <mxPoint x="480" y="40" />
            </Array>
          </mxGeometry>
        </mxCell>
        <mxCell id="VrE6sZuMcQ_JEsaJTfix-0" value="HRController" style="swimlane;fontStyle=1;align=center;verticalAlign=top;childLayout=stackLayout;horizontal=1;startSize=30;horizontalStack=0;resizeParent=1;resizeParentMax=0;resizeLast=0;collapsible=0;marginBottom=0;whiteSpace=wrap;html=1;fontSize=14;" parent="WIyWlLk6GJQsqaUBKTNV-1" vertex="1">
          <mxGeometry x="1000" y="60" width="240" height="654" as="geometry" />
        </mxCell>
        <mxCell id="VrE6sZuMcQ_JEsaJTfix-1" value="- employeeList:&lt;div&gt;&amp;nbsp; &amp;nbsp; ObservableList&amp;lt;Employee&amp;gt;&lt;/div&gt;" style="text;strokeColor=none;fillColor=none;align=left;verticalAlign=middle;spacingLeft=4;spacingRight=4;overflow=hidden;rotatable=0;points=[[0,0.5],[1,0.5]];portConstraint=eastwest;whiteSpace=wrap;html=1;fontSize=10;fontFamily=Courier New;" parent="VrE6sZuMcQ_JEsaJTfix-0" vertex="1">
          <mxGeometry y="30" width="240" height="30" as="geometry" />
        </mxCell>
        <mxCell id="VrE6sZuMcQ_JEsaJTfix-2" value="- currentEmployeeIndex:&lt;div&gt;&amp;nbsp; &amp;nbsp; IntegerProperty&lt;/div&gt;" style="text;strokeColor=none;fillColor=none;align=left;verticalAlign=middle;spacingLeft=4;spacingRight=4;overflow=hidden;rotatable=0;points=[[0,0.5],[1,0.5]];portConstraint=eastwest;whiteSpace=wrap;html=1;fontSize=10;fontFamily=Courier New;" parent="VrE6sZuMcQ_JEsaJTfix-0" vertex="1">
          <mxGeometry y="60" width="240" height="30" as="geometry" />
        </mxCell>
        <mxCell id="VrE6sZuMcQ_JEsaJTfix-6" value="" style="line;strokeWidth=1;fillColor=none;align=left;verticalAlign=middle;spacingTop=-1;spacingLeft=3;spacingRight=3;rotatable=0;labelPosition=right;points=[];portConstraint=eastwest;strokeColor=inherit;fontFamily=Courier New;fontSize=10;" parent="VrE6sZuMcQ_JEsaJTfix-0" vertex="1">
          <mxGeometry y="90" width="240" height="8" as="geometry" />
        </mxCell>
        <mxCell id="VrE6sZuMcQ_JEsaJTfix-7" value="+ EmployeeController()" style="text;strokeColor=none;fillColor=none;align=left;verticalAlign=middle;spacingLeft=4;spacingRight=4;overflow=hidden;rotatable=0;points=[[0,0.5],[1,0.5]];portConstraint=eastwest;whiteSpace=wrap;html=1;fontSize=10;fontFamily=Courier New;" parent="VrE6sZuMcQ_JEsaJTfix-0" vertex="1">
          <mxGeometry y="98" width="240" height="22" as="geometry" />
        </mxCell>
        <mxCell id="VrE6sZuMcQ_JEsaJTfix-21" value="+ EmployeeController(&lt;div&gt;&amp;nbsp; &amp;nbsp; list: ObservableList&amp;lt;Movie&amp;gt;)&lt;/div&gt;" style="text;strokeColor=none;fillColor=none;align=left;verticalAlign=middle;spacingLeft=4;spacingRight=4;overflow=hidden;rotatable=0;points=[[0,0.5],[1,0.5]];portConstraint=eastwest;whiteSpace=wrap;html=1;fontSize=10;fontFamily=Courier New;" parent="VrE6sZuMcQ_JEsaJTfix-0" vertex="1">
          <mxGeometry y="120" width="240" height="30" as="geometry" />
        </mxCell>
        <mxCell id="VrE6sZuMcQ_JEsaJTfix-8" value="+&amp;nbsp;createEmployee(&lt;div&gt;&amp;nbsp; &amp;nbsp; firstName: String,&lt;/div&gt;&lt;div&gt;&amp;nbsp; &amp;nbsp; lastName: String,&lt;/div&gt;&lt;div&gt;&amp;nbsp; &amp;nbsp; phoneNumber: String,&lt;/div&gt;&lt;div&gt;&amp;nbsp; &amp;nbsp; address: String,&lt;/div&gt;&lt;div&gt;&amp;nbsp; &amp;nbsp; city: String,&lt;/div&gt;&lt;div&gt;&amp;nbsp; &amp;nbsp; state: State,&lt;/div&gt;&lt;div&gt;&amp;nbsp; &amp;nbsp; employeeId: Int,&lt;/div&gt;&lt;div&gt;&amp;nbsp; &amp;nbsp; employeeTitle: String,&lt;/div&gt;&lt;div&gt;&amp;nbsp; &amp;nbsp; department: String,&lt;/div&gt;&lt;div&gt;&amp;nbsp; &amp;nbsp; salary: double,&lt;/div&gt;&lt;div&gt;&amp;nbsp; &amp;nbsp; hireDate: LocalDate&lt;span style=&quot;background-color: initial; font-size: 10px;&quot;&gt;): Employee&lt;/span&gt;&lt;/div&gt;" style="text;strokeColor=none;fillColor=none;align=left;verticalAlign=middle;spacingLeft=4;spacingRight=4;overflow=hidden;rotatable=0;points=[[0,0.5],[1,0.5]];portConstraint=eastwest;whiteSpace=wrap;html=1;fontSize=10;fontFamily=Courier New;" parent="VrE6sZuMcQ_JEsaJTfix-0" vertex="1">
          <mxGeometry y="150" width="240" height="150" as="geometry" />
        </mxCell>
        <mxCell id="VrE6sZuMcQ_JEsaJTfix-22" value="+&amp;nbsp;updateEmployee(&lt;div&gt;&amp;nbsp; &amp;nbsp; index: Int,&lt;/div&gt;&lt;div&gt;&amp;nbsp; &amp;nbsp; firstName: String,&lt;/div&gt;&lt;div&gt;&amp;nbsp; &amp;nbsp; lastName: String,&lt;/div&gt;&lt;div&gt;&amp;nbsp; &amp;nbsp; phoneNumber: String,&lt;/div&gt;&lt;div&gt;&amp;nbsp; &amp;nbsp; address: String,&lt;/div&gt;&lt;div&gt;&amp;nbsp; &amp;nbsp; city: String,&lt;/div&gt;&lt;div&gt;&amp;nbsp; &amp;nbsp; state: State,&lt;/div&gt;&lt;div&gt;&amp;nbsp; &amp;nbsp; employeeId: Int,&lt;/div&gt;&lt;div&gt;&amp;nbsp; &amp;nbsp; employeeTitle: String,&lt;/div&gt;&lt;div&gt;&amp;nbsp; &amp;nbsp; department: String,&lt;/div&gt;&lt;div&gt;&amp;nbsp; &amp;nbsp; salary: Double,&lt;/div&gt;&lt;div&gt;&amp;nbsp; &amp;nbsp; hireDate: LocalDate): Employee&lt;span style=&quot;background-color: initial; font-size: 10px;&quot;&gt;&lt;br style=&quot;font-size: 10px;&quot;&gt;&lt;/span&gt;&lt;/div&gt;" style="text;strokeColor=none;fillColor=none;align=left;verticalAlign=middle;spacingLeft=4;spacingRight=4;overflow=hidden;rotatable=0;points=[[0,0.5],[1,0.5]];portConstraint=eastwest;whiteSpace=wrap;html=1;fontSize=10;fontFamily=Courier New;" parent="VrE6sZuMcQ_JEsaJTfix-0" vertex="1">
          <mxGeometry y="300" width="240" height="160" as="geometry" />
        </mxCell>
        <mxCell id="VrE6sZuMcQ_JEsaJTfix-23" value="+&amp;nbsp;deleteEmployee(index: Int&lt;span style=&quot;background-color: initial; font-size: 10px;&quot;&gt;)&lt;/span&gt;" style="text;strokeColor=none;fillColor=none;align=left;verticalAlign=middle;spacingLeft=4;spacingRight=4;overflow=hidden;rotatable=0;points=[[0,0.5],[1,0.5]];portConstraint=eastwest;whiteSpace=wrap;html=1;fontSize=10;fontFamily=Courier New;" parent="VrE6sZuMcQ_JEsaJTfix-0" vertex="1">
          <mxGeometry y="460" width="240" height="22" as="geometry" />
        </mxCell>
        <mxCell id="VrE6sZuMcQ_JEsaJTfix-24" value="+&amp;nbsp;getCurrentEmployee(&lt;span style=&quot;background-color: initial; font-size: 10px;&quot;&gt;):&amp;nbsp;&lt;/span&gt;Employee" style="text;strokeColor=none;fillColor=none;align=left;verticalAlign=middle;spacingLeft=4;spacingRight=4;overflow=hidden;rotatable=0;points=[[0,0.5],[1,0.5]];portConstraint=eastwest;whiteSpace=wrap;html=1;fontSize=10;fontFamily=Courier New;" parent="VrE6sZuMcQ_JEsaJTfix-0" vertex="1">
          <mxGeometry y="482" width="240" height="20" as="geometry" />
        </mxCell>
        <mxCell id="VrE6sZuMcQ_JEsaJTfix-25" value="+ getCurrentEmployeeIndex(&lt;span style=&quot;background-color: initial; font-size: 10px;&quot;&gt;):&lt;/span&gt;&lt;div&gt;&lt;span style=&quot;background-color: initial; font-size: 10px;&quot;&gt;&amp;nbsp; &amp;nbsp; IntegerProperty&lt;/span&gt;&lt;/div&gt;" style="text;strokeColor=none;fillColor=none;align=left;verticalAlign=middle;spacingLeft=4;spacingRight=4;overflow=hidden;rotatable=0;points=[[0,0.5],[1,0.5]];portConstraint=eastwest;whiteSpace=wrap;html=1;fontSize=10;fontFamily=Courier New;" parent="VrE6sZuMcQ_JEsaJTfix-0" vertex="1">
          <mxGeometry y="502" width="240" height="28" as="geometry" />
        </mxCell>
        <mxCell id="OGeXfidwOHUhbuxbb3Ev-0" value="+ setCurrentEmployeeIndex(index: Int&lt;span style=&quot;background-color: initial; font-size: 10px;&quot;&gt;)&lt;/span&gt;" style="text;strokeColor=none;fillColor=none;align=left;verticalAlign=middle;spacingLeft=4;spacingRight=4;overflow=hidden;rotatable=0;points=[[0,0.5],[1,0.5]];portConstraint=eastwest;whiteSpace=wrap;html=1;fontSize=10;fontFamily=Courier New;" parent="VrE6sZuMcQ_JEsaJTfix-0" vertex="1">
          <mxGeometry y="530" width="240" height="20" as="geometry" />
        </mxCell>
        <mxCell id="VrE6sZuMcQ_JEsaJTfix-26" value="+&amp;nbsp;navigateNext()" style="text;strokeColor=none;fillColor=none;align=left;verticalAlign=middle;spacingLeft=4;spacingRight=4;overflow=hidden;rotatable=0;points=[[0,0.5],[1,0.5]];portConstraint=eastwest;whiteSpace=wrap;html=1;fontSize=10;fontFamily=Courier New;" parent="VrE6sZuMcQ_JEsaJTfix-0" vertex="1">
          <mxGeometry y="550" width="240" height="18" as="geometry" />
        </mxCell>
        <mxCell id="VrE6sZuMcQ_JEsaJTfix-27" value="+&amp;nbsp;navigatePrevious()" style="text;strokeColor=none;fillColor=none;align=left;verticalAlign=middle;spacingLeft=4;spacingRight=4;overflow=hidden;rotatable=0;points=[[0,0.5],[1,0.5]];portConstraint=eastwest;whiteSpace=wrap;html=1;fontSize=10;fontFamily=Courier New;" parent="VrE6sZuMcQ_JEsaJTfix-0" vertex="1">
          <mxGeometry y="568" width="240" height="18" as="geometry" />
        </mxCell>
        <mxCell id="VrE6sZuMcQ_JEsaJTfix-19" value="+&amp;nbsp;getEmployeeList&lt;span style=&quot;background-color: initial; font-size: 10px;&quot;&gt;(&lt;/span&gt;):&lt;div&gt;&amp;nbsp; &amp;nbsp; ObservableList&amp;lt;Employee&lt;span style=&quot;background-color: initial; font-size: 10px;&quot;&gt;&amp;gt;&lt;/span&gt;&lt;/div&gt;" style="text;strokeColor=none;fillColor=none;align=left;verticalAlign=middle;spacingLeft=4;spacingRight=4;overflow=hidden;rotatable=0;points=[[0,0.5],[1,0.5]];portConstraint=eastwest;whiteSpace=wrap;html=1;fontSize=10;fontFamily=Courier New;" parent="VrE6sZuMcQ_JEsaJTfix-0" vertex="1">
          <mxGeometry y="586" width="240" height="32" as="geometry" />
        </mxCell>
        <mxCell id="OGeXfidwOHUhbuxbb3Ev-1" value="+&amp;nbsp;setEmployeeList(movieList:&amp;nbsp;List&amp;lt;Employee&amp;gt;&lt;span style=&quot;background-color: initial; font-size: 10px;&quot;&gt;)&lt;/span&gt;" style="text;strokeColor=none;fillColor=none;align=left;verticalAlign=middle;spacingLeft=4;spacingRight=4;overflow=hidden;rotatable=0;points=[[0,0.5],[1,0.5]];portConstraint=eastwest;whiteSpace=wrap;html=1;fontSize=10;fontFamily=Courier New;" parent="VrE6sZuMcQ_JEsaJTfix-0" vertex="1">
          <mxGeometry y="618" width="240" height="18" as="geometry" />
        </mxCell>
        <mxCell id="9212bw_EbjLoRZrMJDlf-26" value="- checkIndex(index: int)" style="text;strokeColor=none;fillColor=none;align=left;verticalAlign=middle;spacingLeft=4;spacingRight=4;overflow=hidden;rotatable=0;points=[[0,0.5],[1,0.5]];portConstraint=eastwest;whiteSpace=wrap;html=1;fontSize=10;fontFamily=Courier New;" parent="VrE6sZuMcQ_JEsaJTfix-0" vertex="1">
          <mxGeometry y="636" width="240" height="18" as="geometry" />
        </mxCell>
        <mxCell id="VrE6sZuMcQ_JEsaJTfix-29" value="HRView" style="swimlane;fontStyle=1;align=center;verticalAlign=top;childLayout=stackLayout;horizontal=1;startSize=30;horizontalStack=0;resizeParent=1;resizeParentMax=0;resizeLast=0;collapsible=0;marginBottom=0;whiteSpace=wrap;html=1;fontSize=14;" parent="WIyWlLk6GJQsqaUBKTNV-1" vertex="1">
          <mxGeometry x="680" y="60" width="240" height="380" as="geometry" />
        </mxCell>
        <mxCell id="wpwI0OQQhqt3DgpPFKmT-0" value="+ currentMode: ObjectProperty&amp;lt;Mode&amp;gt;" style="text;strokeColor=none;fillColor=none;align=left;verticalAlign=middle;spacingLeft=4;spacingRight=4;overflow=hidden;rotatable=0;points=[[0,0.5],[1,0.5]];portConstraint=eastwest;whiteSpace=wrap;html=1;fontSize=10;fontFamily=Courier New;" parent="VrE6sZuMcQ_JEsaJTfix-29" vertex="1">
          <mxGeometry y="30" width="240" height="20" as="geometry" />
        </mxCell>
        <mxCell id="VrE6sZuMcQ_JEsaJTfix-30" value="+ indicator: Label" style="text;strokeColor=none;fillColor=none;align=left;verticalAlign=middle;spacingLeft=4;spacingRight=4;overflow=hidden;rotatable=0;points=[[0,0.5],[1,0.5]];portConstraint=eastwest;whiteSpace=wrap;html=1;fontSize=10;fontFamily=Courier New;" parent="VrE6sZuMcQ_JEsaJTfix-29" vertex="1">
          <mxGeometry y="50" width="240" height="20" as="geometry" />
        </mxCell>
        <mxCell id="OGeXfidwOHUhbuxbb3Ev-73" value="+ menus: MainMenuBar" style="text;strokeColor=none;fillColor=none;align=left;verticalAlign=middle;spacingLeft=4;spacingRight=4;overflow=hidden;rotatable=0;points=[[0,0.5],[1,0.5]];portConstraint=eastwest;whiteSpace=wrap;html=1;fontSize=10;fontFamily=Courier New;" parent="VrE6sZuMcQ_JEsaJTfix-29" vertex="1">
          <mxGeometry y="70" width="240" height="20" as="geometry" />
        </mxCell>
        <mxCell id="OGeXfidwOHUhbuxbb3Ev-74" value="+ info: MainGridPane" style="text;strokeColor=none;fillColor=none;align=left;verticalAlign=middle;spacingLeft=4;spacingRight=4;overflow=hidden;rotatable=0;points=[[0,0.5],[1,0.5]];portConstraint=eastwest;whiteSpace=wrap;html=1;fontSize=10;fontFamily=Courier New;" parent="VrE6sZuMcQ_JEsaJTfix-29" vertex="1">
          <mxGeometry y="90" width="240" height="20" as="geometry" />
        </mxCell>
        <mxCell id="OGeXfidwOHUhbuxbb3Ev-75" value="+ buttons: MainButtonBar" style="text;strokeColor=none;fillColor=none;align=left;verticalAlign=middle;spacingLeft=4;spacingRight=4;overflow=hidden;rotatable=0;points=[[0,0.5],[1,0.5]];portConstraint=eastwest;whiteSpace=wrap;html=1;fontSize=10;fontFamily=Courier New;" parent="VrE6sZuMcQ_JEsaJTfix-29" vertex="1">
          <mxGeometry y="110" width="240" height="20" as="geometry" />
        </mxCell>
        <mxCell id="VrE6sZuMcQ_JEsaJTfix-32" value="" style="line;strokeWidth=1;fillColor=none;align=left;verticalAlign=middle;spacingTop=-1;spacingLeft=3;spacingRight=3;rotatable=0;labelPosition=right;points=[];portConstraint=eastwest;strokeColor=inherit;fontSize=10;fontFamily=Courier New;" parent="VrE6sZuMcQ_JEsaJTfix-29" vertex="1">
          <mxGeometry y="130" width="240" height="8" as="geometry" />
        </mxCell>
        <mxCell id="VrE6sZuMcQ_JEsaJTfix-33" value="+&amp;nbsp;bindControls(&lt;div&gt;&amp;nbsp; &amp;nbsp; employees:&lt;/div&gt;&lt;div&gt;&amp;nbsp; &amp;nbsp; &amp;nbsp; ObservableList&amp;lt;Employee&amp;gt;,&lt;/div&gt;&lt;div&gt;&amp;nbsp; &amp;nbsp; index: IntegerProperty)&lt;/div&gt;" style="text;strokeColor=none;fillColor=none;align=left;verticalAlign=middle;spacingLeft=4;spacingRight=4;overflow=hidden;rotatable=0;points=[[0,0.5],[1,0.5]];portConstraint=eastwest;whiteSpace=wrap;html=1;fontSize=10;fontFamily=Courier New;" parent="VrE6sZuMcQ_JEsaJTfix-29" vertex="1">
          <mxGeometry y="138" width="240" height="52" as="geometry" />
        </mxCell>
        <mxCell id="VrE6sZuMcQ_JEsaJTfix-34" value="+&amp;nbsp;displayEmployee(employee: Employee)" style="text;strokeColor=none;fillColor=none;align=left;verticalAlign=middle;spacingLeft=4;spacingRight=4;overflow=hidden;rotatable=0;points=[[0,0.5],[1,0.5]];portConstraint=eastwest;whiteSpace=wrap;html=1;fontSize=10;fontFamily=Courier New;" parent="VrE6sZuMcQ_JEsaJTfix-29" vertex="1">
          <mxGeometry y="190" width="240" height="20" as="geometry" />
        </mxCell>
        <mxCell id="VrE6sZuMcQ_JEsaJTfix-37" value="+&amp;nbsp;getEmployeeInfo(&lt;span style=&quot;background-color: initial; font-size: 10px;&quot;&gt;): Employee&lt;/span&gt;" style="text;strokeColor=none;fillColor=none;align=left;verticalAlign=middle;spacingLeft=4;spacingRight=4;overflow=hidden;rotatable=0;points=[[0,0.5],[1,0.5]];portConstraint=eastwest;whiteSpace=wrap;html=1;fontSize=10;fontFamily=Courier New;" parent="VrE6sZuMcQ_JEsaJTfix-29" vertex="1">
          <mxGeometry y="210" width="240" height="22" as="geometry" />
        </mxCell>
        <mxCell id="9212bw_EbjLoRZrMJDlf-27" value="- bindMenuToButton(&lt;div&gt;&amp;nbsp; &amp;nbsp; menu: MenuItem,&lt;/div&gt;&lt;div&gt;&amp;nbsp; &amp;nbsp; button: Button,&lt;/div&gt;&lt;div&gt;&amp;nbsp; &amp;nbsp; disability: BooleanBinding)&lt;/div&gt;" style="text;strokeColor=none;fillColor=none;align=left;verticalAlign=middle;spacingLeft=4;spacingRight=4;overflow=hidden;rotatable=0;points=[[0,0.5],[1,0.5]];portConstraint=eastwest;whiteSpace=wrap;html=1;fontSize=10;fontFamily=Courier New;" parent="VrE6sZuMcQ_JEsaJTfix-29" vertex="1">
          <mxGeometry y="232" width="240" height="58" as="geometry" />
        </mxCell>
        <mxCell id="9212bw_EbjLoRZrMJDlf-28" value="- bindMenuToButton(&lt;div&gt;&amp;nbsp; &amp;nbsp; menu: MenuItem,&lt;/div&gt;&lt;div&gt;&amp;nbsp; &amp;nbsp; button: Button,&lt;/div&gt;&lt;div&gt;&amp;nbsp; &amp;nbsp; disability: BooleanBinding,&lt;/div&gt;&lt;div&gt;&amp;nbsp; &amp;nbsp; targetMode: Mode,&lt;/div&gt;&lt;div&gt;&amp;nbsp; &amp;nbsp; textDefault: String,&lt;/div&gt;&lt;div&gt;&amp;nbsp; &amp;nbsp; textCancel: String)&lt;/div&gt;" style="text;strokeColor=none;fillColor=none;align=left;verticalAlign=middle;spacingLeft=4;spacingRight=4;overflow=hidden;rotatable=0;points=[[0,0.5],[1,0.5]];portConstraint=eastwest;whiteSpace=wrap;html=1;fontSize=10;fontFamily=Courier New;" parent="VrE6sZuMcQ_JEsaJTfix-29" vertex="1">
          <mxGeometry y="290" width="240" height="90" as="geometry" />
        </mxCell>
        <mxCell id="OGeXfidwOHUhbuxbb3Ev-10" value="MainButtonBar" style="swimlane;fontStyle=1;align=center;verticalAlign=top;childLayout=stackLayout;horizontal=1;startSize=30;horizontalStack=0;resizeParent=1;resizeParentMax=0;resizeLast=0;collapsible=0;marginBottom=0;whiteSpace=wrap;html=1;fontSize=14;" parent="WIyWlLk6GJQsqaUBKTNV-1" vertex="1">
          <mxGeometry x="1000" y="790" width="240" height="150" as="geometry" />
        </mxCell>
        <mxCell id="OGeXfidwOHUhbuxbb3Ev-11" value="+ previous: Button" style="text;strokeColor=none;fillColor=none;align=left;verticalAlign=middle;spacingLeft=4;spacingRight=4;overflow=hidden;rotatable=0;points=[[0,0.5],[1,0.5]];portConstraint=eastwest;whiteSpace=wrap;html=1;fontSize=10;fontFamily=Courier New;" parent="OGeXfidwOHUhbuxbb3Ev-10" vertex="1">
          <mxGeometry y="30" width="240" height="20" as="geometry" />
        </mxCell>
        <mxCell id="OGeXfidwOHUhbuxbb3Ev-18" value="+ next: Button" style="text;strokeColor=none;fillColor=none;align=left;verticalAlign=middle;spacingLeft=4;spacingRight=4;overflow=hidden;rotatable=0;points=[[0,0.5],[1,0.5]];portConstraint=eastwest;whiteSpace=wrap;html=1;fontSize=10;fontFamily=Courier New;" parent="OGeXfidwOHUhbuxbb3Ev-10" vertex="1">
          <mxGeometry y="50" width="240" height="20" as="geometry" />
        </mxCell>
        <mxCell id="OGeXfidwOHUhbuxbb3Ev-19" value="+ save: Button" style="text;strokeColor=none;fillColor=none;align=left;verticalAlign=middle;spacingLeft=4;spacingRight=4;overflow=hidden;rotatable=0;points=[[0,0.5],[1,0.5]];portConstraint=eastwest;whiteSpace=wrap;html=1;fontSize=10;fontFamily=Courier New;" parent="OGeXfidwOHUhbuxbb3Ev-10" vertex="1">
          <mxGeometry y="70" width="240" height="20" as="geometry" />
        </mxCell>
        <mxCell id="OGeXfidwOHUhbuxbb3Ev-20" value="+ create: Button" style="text;strokeColor=none;fillColor=none;align=left;verticalAlign=middle;spacingLeft=4;spacingRight=4;overflow=hidden;rotatable=0;points=[[0,0.5],[1,0.5]];portConstraint=eastwest;whiteSpace=wrap;html=1;fontSize=10;fontFamily=Courier New;" parent="OGeXfidwOHUhbuxbb3Ev-10" vertex="1">
          <mxGeometry y="90" width="240" height="20" as="geometry" />
        </mxCell>
        <mxCell id="OGeXfidwOHUhbuxbb3Ev-21" value="+ edit: Button" style="text;strokeColor=none;fillColor=none;align=left;verticalAlign=middle;spacingLeft=4;spacingRight=4;overflow=hidden;rotatable=0;points=[[0,0.5],[1,0.5]];portConstraint=eastwest;whiteSpace=wrap;html=1;fontSize=10;fontFamily=Courier New;" parent="OGeXfidwOHUhbuxbb3Ev-10" vertex="1">
          <mxGeometry y="110" width="240" height="20" as="geometry" />
        </mxCell>
        <mxCell id="OGeXfidwOHUhbuxbb3Ev-22" value="+ save: Button" style="text;strokeColor=none;fillColor=none;align=left;verticalAlign=middle;spacingLeft=4;spacingRight=4;overflow=hidden;rotatable=0;points=[[0,0.5],[1,0.5]];portConstraint=eastwest;whiteSpace=wrap;html=1;fontSize=10;fontFamily=Courier New;" parent="OGeXfidwOHUhbuxbb3Ev-10" vertex="1">
          <mxGeometry y="130" width="240" height="20" as="geometry" />
        </mxCell>
        <mxCell id="OGeXfidwOHUhbuxbb3Ev-30" value="MainGridPane" style="swimlane;fontStyle=1;align=center;verticalAlign=top;childLayout=stackLayout;horizontal=1;startSize=30;horizontalStack=0;resizeParent=1;resizeParentMax=0;resizeLast=0;collapsible=0;marginBottom=0;whiteSpace=wrap;html=1;fontSize=14;" parent="WIyWlLk6GJQsqaUBKTNV-1" vertex="1">
          <mxGeometry x="360" y="620" width="240" height="280" as="geometry" />
        </mxCell>
        <mxCell id="9212bw_EbjLoRZrMJDlf-30" value="+ firstName: TextField" style="text;strokeColor=none;fillColor=none;align=left;verticalAlign=middle;spacingLeft=4;spacingRight=4;overflow=hidden;rotatable=0;points=[[0,0.5],[1,0.5]];portConstraint=eastwest;whiteSpace=wrap;html=1;fontSize=10;fontFamily=Courier New;" parent="OGeXfidwOHUhbuxbb3Ev-30" vertex="1">
          <mxGeometry y="30" width="240" height="20" as="geometry" />
        </mxCell>
        <mxCell id="9212bw_EbjLoRZrMJDlf-31" value="+ lastName: TextField" style="text;strokeColor=none;fillColor=none;align=left;verticalAlign=middle;spacingLeft=4;spacingRight=4;overflow=hidden;rotatable=0;points=[[0,0.5],[1,0.5]];portConstraint=eastwest;whiteSpace=wrap;html=1;fontSize=10;fontFamily=Courier New;" parent="OGeXfidwOHUhbuxbb3Ev-30" vertex="1">
          <mxGeometry y="50" width="240" height="20" as="geometry" />
        </mxCell>
        <mxCell id="9212bw_EbjLoRZrMJDlf-32" value="+ phoneNumber: TextField" style="text;strokeColor=none;fillColor=none;align=left;verticalAlign=middle;spacingLeft=4;spacingRight=4;overflow=hidden;rotatable=0;points=[[0,0.5],[1,0.5]];portConstraint=eastwest;whiteSpace=wrap;html=1;fontSize=10;fontFamily=Courier New;" parent="OGeXfidwOHUhbuxbb3Ev-30" vertex="1">
          <mxGeometry y="70" width="240" height="20" as="geometry" />
        </mxCell>
        <mxCell id="9212bw_EbjLoRZrMJDlf-33" value="+ address: TextField" style="text;strokeColor=none;fillColor=none;align=left;verticalAlign=middle;spacingLeft=4;spacingRight=4;overflow=hidden;rotatable=0;points=[[0,0.5],[1,0.5]];portConstraint=eastwest;whiteSpace=wrap;html=1;fontSize=10;fontFamily=Courier New;" parent="OGeXfidwOHUhbuxbb3Ev-30" vertex="1">
          <mxGeometry y="90" width="240" height="20" as="geometry" />
        </mxCell>
        <mxCell id="9212bw_EbjLoRZrMJDlf-34" value="+ city: TextField" style="text;strokeColor=none;fillColor=none;align=left;verticalAlign=middle;spacingLeft=4;spacingRight=4;overflow=hidden;rotatable=0;points=[[0,0.5],[1,0.5]];portConstraint=eastwest;whiteSpace=wrap;html=1;fontSize=10;fontFamily=Courier New;" parent="OGeXfidwOHUhbuxbb3Ev-30" vertex="1">
          <mxGeometry y="110" width="240" height="20" as="geometry" />
        </mxCell>
        <mxCell id="9212bw_EbjLoRZrMJDlf-35" value="+ state: ComboBox&amp;lt;State&amp;gt;" style="text;strokeColor=none;fillColor=none;align=left;verticalAlign=middle;spacingLeft=4;spacingRight=4;overflow=hidden;rotatable=0;points=[[0,0.5],[1,0.5]];portConstraint=eastwest;whiteSpace=wrap;html=1;fontSize=10;fontFamily=Courier New;" parent="OGeXfidwOHUhbuxbb3Ev-30" vertex="1">
          <mxGeometry y="130" width="240" height="20" as="geometry" />
        </mxCell>
        <mxCell id="9212bw_EbjLoRZrMJDlf-36" value="+ employeeId: TextField" style="text;strokeColor=none;fillColor=none;align=left;verticalAlign=middle;spacingLeft=4;spacingRight=4;overflow=hidden;rotatable=0;points=[[0,0.5],[1,0.5]];portConstraint=eastwest;whiteSpace=wrap;html=1;fontSize=10;fontFamily=Courier New;" parent="OGeXfidwOHUhbuxbb3Ev-30" vertex="1">
          <mxGeometry y="150" width="240" height="20" as="geometry" />
        </mxCell>
        <mxCell id="9212bw_EbjLoRZrMJDlf-37" value="+ employeeTitle: TextField" style="text;strokeColor=none;fillColor=none;align=left;verticalAlign=middle;spacingLeft=4;spacingRight=4;overflow=hidden;rotatable=0;points=[[0,0.5],[1,0.5]];portConstraint=eastwest;whiteSpace=wrap;html=1;fontSize=10;fontFamily=Courier New;" parent="OGeXfidwOHUhbuxbb3Ev-30" vertex="1">
          <mxGeometry y="170" width="240" height="20" as="geometry" />
        </mxCell>
        <mxCell id="9212bw_EbjLoRZrMJDlf-38" value="+ department: TextField" style="text;strokeColor=none;fillColor=none;align=left;verticalAlign=middle;spacingLeft=4;spacingRight=4;overflow=hidden;rotatable=0;points=[[0,0.5],[1,0.5]];portConstraint=eastwest;whiteSpace=wrap;html=1;fontSize=10;fontFamily=Courier New;" parent="OGeXfidwOHUhbuxbb3Ev-30" vertex="1">
          <mxGeometry y="190" width="240" height="20" as="geometry" />
        </mxCell>
        <mxCell id="9212bw_EbjLoRZrMJDlf-39" value="+ salary: TextField" style="text;strokeColor=none;fillColor=none;align=left;verticalAlign=middle;spacingLeft=4;spacingRight=4;overflow=hidden;rotatable=0;points=[[0,0.5],[1,0.5]];portConstraint=eastwest;whiteSpace=wrap;html=1;fontSize=10;fontFamily=Courier New;" parent="OGeXfidwOHUhbuxbb3Ev-30" vertex="1">
          <mxGeometry y="210" width="240" height="20" as="geometry" />
        </mxCell>
        <mxCell id="9212bw_EbjLoRZrMJDlf-40" value="+ hireDate: DatePicker" style="text;strokeColor=none;fillColor=none;align=left;verticalAlign=middle;spacingLeft=4;spacingRight=4;overflow=hidden;rotatable=0;points=[[0,0.5],[1,0.5]];portConstraint=eastwest;whiteSpace=wrap;html=1;fontSize=10;fontFamily=Courier New;" parent="OGeXfidwOHUhbuxbb3Ev-30" vertex="1">
          <mxGeometry y="230" width="240" height="20" as="geometry" />
        </mxCell>
        <mxCell id="OGeXfidwOHUhbuxbb3Ev-33" value="" style="line;strokeWidth=1;fillColor=none;align=left;verticalAlign=middle;spacingTop=-1;spacingLeft=3;spacingRight=3;rotatable=0;labelPosition=right;points=[];portConstraint=eastwest;strokeColor=inherit;fontSize=10;fontFamily=Courier New;" parent="OGeXfidwOHUhbuxbb3Ev-30" vertex="1">
          <mxGeometry y="250" width="240" height="8" as="geometry" />
        </mxCell>
        <mxCell id="OGeXfidwOHUhbuxbb3Ev-34" value="+&amp;nbsp;getControls(): List&amp;lt;Control&amp;gt;" style="text;strokeColor=none;fillColor=none;align=left;verticalAlign=middle;spacingLeft=4;spacingRight=4;overflow=hidden;rotatable=0;points=[[0,0.5],[1,0.5]];portConstraint=eastwest;whiteSpace=wrap;html=1;fontSize=10;fontFamily=Courier New;" parent="OGeXfidwOHUhbuxbb3Ev-30" vertex="1">
          <mxGeometry y="258" width="240" height="22" as="geometry" />
        </mxCell>
        <mxCell id="OGeXfidwOHUhbuxbb3Ev-52" value="MainMenuBar" style="swimlane;fontStyle=1;align=center;verticalAlign=top;childLayout=stackLayout;horizontal=1;startSize=30;horizontalStack=0;resizeParent=1;resizeParentMax=0;resizeLast=0;collapsible=0;marginBottom=0;whiteSpace=wrap;html=1;fontSize=14;" parent="WIyWlLk6GJQsqaUBKTNV-1" vertex="1">
          <mxGeometry x="680" y="720" width="240" height="310" as="geometry" />
        </mxCell>
        <mxCell id="OGeXfidwOHUhbuxbb3Ev-53" value="+ saveFile: MenuItem" style="text;strokeColor=none;fillColor=none;align=left;verticalAlign=middle;spacingLeft=4;spacingRight=4;overflow=hidden;rotatable=0;points=[[0,0.5],[1,0.5]];portConstraint=eastwest;whiteSpace=wrap;html=1;fontSize=10;fontFamily=Courier New;" parent="OGeXfidwOHUhbuxbb3Ev-52" vertex="1">
          <mxGeometry y="30" width="240" height="20" as="geometry" />
        </mxCell>
        <mxCell id="OGeXfidwOHUhbuxbb3Ev-61" value="+ quit: MenuItem" style="text;strokeColor=none;fillColor=none;align=left;verticalAlign=middle;spacingLeft=4;spacingRight=4;overflow=hidden;rotatable=0;points=[[0,0.5],[1,0.5]];portConstraint=eastwest;whiteSpace=wrap;html=1;fontSize=10;fontFamily=Courier New;" parent="OGeXfidwOHUhbuxbb3Ev-52" vertex="1">
          <mxGeometry y="50" width="240" height="20" as="geometry" />
        </mxCell>
        <mxCell id="9212bw_EbjLoRZrMJDlf-41" value="+ randomize: MenuItem" style="text;strokeColor=none;fillColor=none;align=left;verticalAlign=middle;spacingLeft=4;spacingRight=4;overflow=hidden;rotatable=0;points=[[0,0.5],[1,0.5]];portConstraint=eastwest;whiteSpace=wrap;html=1;fontSize=10;fontFamily=Courier New;" parent="OGeXfidwOHUhbuxbb3Ev-52" vertex="1">
          <mxGeometry y="70" width="240" height="20" as="geometry" />
        </mxCell>
        <mxCell id="OGeXfidwOHUhbuxbb3Ev-62" value="+ resetAll: MenuItem" style="text;strokeColor=none;fillColor=none;align=left;verticalAlign=middle;spacingLeft=4;spacingRight=4;overflow=hidden;rotatable=0;points=[[0,0.5],[1,0.5]];portConstraint=eastwest;whiteSpace=wrap;html=1;fontSize=10;fontFamily=Courier New;" parent="OGeXfidwOHUhbuxbb3Ev-52" vertex="1">
          <mxGeometry y="90" width="240" height="20" as="geometry" />
        </mxCell>
        <mxCell id="OGeXfidwOHUhbuxbb3Ev-63" value="+ create: MenuItem" style="text;strokeColor=none;fillColor=none;align=left;verticalAlign=middle;spacingLeft=4;spacingRight=4;overflow=hidden;rotatable=0;points=[[0,0.5],[1,0.5]];portConstraint=eastwest;whiteSpace=wrap;html=1;fontSize=10;fontFamily=Courier New;" parent="OGeXfidwOHUhbuxbb3Ev-52" vertex="1">
          <mxGeometry y="110" width="240" height="20" as="geometry" />
        </mxCell>
        <mxCell id="OGeXfidwOHUhbuxbb3Ev-64" value="+ edit: MenuItem" style="text;strokeColor=none;fillColor=none;align=left;verticalAlign=middle;spacingLeft=4;spacingRight=4;overflow=hidden;rotatable=0;points=[[0,0.5],[1,0.5]];portConstraint=eastwest;whiteSpace=wrap;html=1;fontSize=10;fontFamily=Courier New;" parent="OGeXfidwOHUhbuxbb3Ev-52" vertex="1">
          <mxGeometry y="130" width="240" height="20" as="geometry" />
        </mxCell>
        <mxCell id="OGeXfidwOHUhbuxbb3Ev-65" value="+ delete: MenuItem" style="text;strokeColor=none;fillColor=none;align=left;verticalAlign=middle;spacingLeft=4;spacingRight=4;overflow=hidden;rotatable=0;points=[[0,0.5],[1,0.5]];portConstraint=eastwest;whiteSpace=wrap;html=1;fontSize=10;fontFamily=Courier New;" parent="OGeXfidwOHUhbuxbb3Ev-52" vertex="1">
          <mxGeometry y="150" width="240" height="20" as="geometry" />
        </mxCell>
        <mxCell id="OGeXfidwOHUhbuxbb3Ev-66" value="+ save: MenuItem" style="text;strokeColor=none;fillColor=none;align=left;verticalAlign=middle;spacingLeft=4;spacingRight=4;overflow=hidden;rotatable=0;points=[[0,0.5],[1,0.5]];portConstraint=eastwest;whiteSpace=wrap;html=1;fontSize=10;fontFamily=Courier New;" parent="OGeXfidwOHUhbuxbb3Ev-52" vertex="1">
          <mxGeometry y="170" width="240" height="20" as="geometry" />
        </mxCell>
        <mxCell id="OGeXfidwOHUhbuxbb3Ev-67" value="+ previous: MenuItem" style="text;strokeColor=none;fillColor=none;align=left;verticalAlign=middle;spacingLeft=4;spacingRight=4;overflow=hidden;rotatable=0;points=[[0,0.5],[1,0.5]];portConstraint=eastwest;whiteSpace=wrap;html=1;fontSize=10;fontFamily=Courier New;" parent="OGeXfidwOHUhbuxbb3Ev-52" vertex="1">
          <mxGeometry y="190" width="240" height="20" as="geometry" />
        </mxCell>
        <mxCell id="OGeXfidwOHUhbuxbb3Ev-68" value="+ next: MenuItem" style="text;strokeColor=none;fillColor=none;align=left;verticalAlign=middle;spacingLeft=4;spacingRight=4;overflow=hidden;rotatable=0;points=[[0,0.5],[1,0.5]];portConstraint=eastwest;whiteSpace=wrap;html=1;fontSize=10;fontFamily=Courier New;" parent="OGeXfidwOHUhbuxbb3Ev-52" vertex="1">
          <mxGeometry y="210" width="240" height="20" as="geometry" />
        </mxCell>
        <mxCell id="OGeXfidwOHUhbuxbb3Ev-69" value="+ goToStart: MenuItem" style="text;strokeColor=none;fillColor=none;align=left;verticalAlign=middle;spacingLeft=4;spacingRight=4;overflow=hidden;rotatable=0;points=[[0,0.5],[1,0.5]];portConstraint=eastwest;whiteSpace=wrap;html=1;fontSize=10;fontFamily=Courier New;" parent="OGeXfidwOHUhbuxbb3Ev-52" vertex="1">
          <mxGeometry y="230" width="240" height="20" as="geometry" />
        </mxCell>
        <mxCell id="OGeXfidwOHUhbuxbb3Ev-70" value="+ goToEnd: MenuItem" style="text;strokeColor=none;fillColor=none;align=left;verticalAlign=middle;spacingLeft=4;spacingRight=4;overflow=hidden;rotatable=0;points=[[0,0.5],[1,0.5]];portConstraint=eastwest;whiteSpace=wrap;html=1;fontSize=10;fontFamily=Courier New;" parent="OGeXfidwOHUhbuxbb3Ev-52" vertex="1">
          <mxGeometry y="250" width="240" height="20" as="geometry" />
        </mxCell>
        <mxCell id="OGeXfidwOHUhbuxbb3Ev-71" value="+ minimize: MenuItem" style="text;strokeColor=none;fillColor=none;align=left;verticalAlign=middle;spacingLeft=4;spacingRight=4;overflow=hidden;rotatable=0;points=[[0,0.5],[1,0.5]];portConstraint=eastwest;whiteSpace=wrap;html=1;fontSize=10;fontFamily=Courier New;" parent="OGeXfidwOHUhbuxbb3Ev-52" vertex="1">
          <mxGeometry y="270" width="240" height="20" as="geometry" />
        </mxCell>
        <mxCell id="OGeXfidwOHUhbuxbb3Ev-72" value="+ about: MenuItem" style="text;strokeColor=none;fillColor=none;align=left;verticalAlign=middle;spacingLeft=4;spacingRight=4;overflow=hidden;rotatable=0;points=[[0,0.5],[1,0.5]];portConstraint=eastwest;whiteSpace=wrap;html=1;fontSize=10;fontFamily=Courier New;" parent="OGeXfidwOHUhbuxbb3Ev-52" vertex="1">
          <mxGeometry y="290" width="240" height="20" as="geometry" />
        </mxCell>
        <mxCell id="OGeXfidwOHUhbuxbb3Ev-76" value="HRApp" style="swimlane;fontStyle=1;align=center;verticalAlign=top;childLayout=stackLayout;horizontal=1;startSize=30;horizontalStack=0;resizeParent=1;resizeParentMax=0;resizeLast=0;collapsible=0;marginBottom=0;whiteSpace=wrap;html=1;fontSize=14;" parent="WIyWlLk6GJQsqaUBKTNV-1" vertex="1">
          <mxGeometry x="360" y="60" width="240" height="142" as="geometry" />
        </mxCell>
        <mxCell id="OGeXfidwOHUhbuxbb3Ev-78" value="- view: HrdView" style="text;strokeColor=none;fillColor=none;align=left;verticalAlign=middle;spacingLeft=4;spacingRight=4;overflow=hidden;rotatable=0;points=[[0,0.5],[1,0.5]];portConstraint=eastwest;whiteSpace=wrap;html=1;fontSize=10;fontFamily=Courier New;" parent="OGeXfidwOHUhbuxbb3Ev-76" vertex="1">
          <mxGeometry y="30" width="240" height="20" as="geometry" />
        </mxCell>
        <mxCell id="OGeXfidwOHUhbuxbb3Ev-79" value="- controller: HrdController" style="text;strokeColor=none;fillColor=none;align=left;verticalAlign=middle;spacingLeft=4;spacingRight=4;overflow=hidden;rotatable=0;points=[[0,0.5],[1,0.5]];portConstraint=eastwest;whiteSpace=wrap;html=1;fontSize=10;fontFamily=Courier New;" parent="OGeXfidwOHUhbuxbb3Ev-76" vertex="1">
          <mxGeometry y="50" width="240" height="20" as="geometry" />
        </mxCell>
        <mxCell id="OGeXfidwOHUhbuxbb3Ev-80" value="- lastMovie: Employee" style="text;strokeColor=none;fillColor=none;align=left;verticalAlign=middle;spacingLeft=4;spacingRight=4;overflow=hidden;rotatable=0;points=[[0,0.5],[1,0.5]];portConstraint=eastwest;whiteSpace=wrap;html=1;fontSize=10;fontFamily=Courier New;" parent="OGeXfidwOHUhbuxbb3Ev-76" vertex="1">
          <mxGeometry y="70" width="240" height="20" as="geometry" />
        </mxCell>
        <mxCell id="OGeXfidwOHUhbuxbb3Ev-82" value="" style="line;strokeWidth=1;fillColor=none;align=left;verticalAlign=middle;spacingTop=-1;spacingLeft=3;spacingRight=3;rotatable=0;labelPosition=right;points=[];portConstraint=eastwest;strokeColor=inherit;fontSize=10;fontFamily=Courier New;" parent="OGeXfidwOHUhbuxbb3Ev-76" vertex="1">
          <mxGeometry y="90" width="240" height="8" as="geometry" />
        </mxCell>
        <mxCell id="OGeXfidwOHUhbuxbb3Ev-83" value="+&amp;nbsp;init()" style="text;strokeColor=none;fillColor=none;align=left;verticalAlign=middle;spacingLeft=4;spacingRight=4;overflow=hidden;rotatable=0;points=[[0,0.5],[1,0.5]];portConstraint=eastwest;whiteSpace=wrap;html=1;fontSize=10;fontFamily=Courier New;" parent="OGeXfidwOHUhbuxbb3Ev-76" vertex="1">
          <mxGeometry y="98" width="240" height="22" as="geometry" />
        </mxCell>
        <mxCell id="OGeXfidwOHUhbuxbb3Ev-84" value="+&amp;nbsp;start(stage: Stage)" style="text;strokeColor=none;fillColor=none;align=left;verticalAlign=middle;spacingLeft=4;spacingRight=4;overflow=hidden;rotatable=0;points=[[0,0.5],[1,0.5]];portConstraint=eastwest;whiteSpace=wrap;html=1;fontSize=10;fontFamily=Courier New;" parent="OGeXfidwOHUhbuxbb3Ev-76" vertex="1">
          <mxGeometry y="120" width="240" height="22" as="geometry" />
        </mxCell>
        <mxCell id="wpwI0OQQhqt3DgpPFKmT-1" value="&amp;lt;&amp;lt;enumeration&amp;gt;&amp;gt;&lt;br style=&quot;font-size: 14px;&quot;&gt;Mode" style="swimlane;fontStyle=1;align=center;verticalAlign=top;childLayout=stackLayout;horizontal=1;startSize=40;horizontalStack=0;resizeParent=1;resizeParentMax=0;resizeLast=0;collapsible=0;marginBottom=0;whiteSpace=wrap;html=1;fontSize=14;" parent="WIyWlLk6GJQsqaUBKTNV-1" vertex="1">
          <mxGeometry x="680" y="520" width="240" height="120" as="geometry" />
        </mxCell>
        <mxCell id="wpwI0OQQhqt3DgpPFKmT-2" value="READ" style="text;strokeColor=none;fillColor=none;align=left;verticalAlign=middle;spacingLeft=4;spacingRight=4;overflow=hidden;rotatable=0;points=[[0,0.5],[1,0.5]];portConstraint=eastwest;whiteSpace=wrap;html=1;fontSize=10;fontFamily=Courier New;" parent="wpwI0OQQhqt3DgpPFKmT-1" vertex="1">
          <mxGeometry y="40" width="240" height="20" as="geometry" />
        </mxCell>
        <mxCell id="wpwI0OQQhqt3DgpPFKmT-3" value="CREATE" style="text;strokeColor=none;fillColor=none;align=left;verticalAlign=middle;spacingLeft=4;spacingRight=4;overflow=hidden;rotatable=0;points=[[0,0.5],[1,0.5]];portConstraint=eastwest;whiteSpace=wrap;html=1;fontSize=10;fontFamily=Courier New;" parent="wpwI0OQQhqt3DgpPFKmT-1" vertex="1">
          <mxGeometry y="60" width="240" height="20" as="geometry" />
        </mxCell>
        <mxCell id="wpwI0OQQhqt3DgpPFKmT-4" value="UPDATE" style="text;strokeColor=none;fillColor=none;align=left;verticalAlign=middle;spacingLeft=4;spacingRight=4;overflow=hidden;rotatable=0;points=[[0,0.5],[1,0.5]];portConstraint=eastwest;whiteSpace=wrap;html=1;fontSize=10;fontFamily=Courier New;" parent="wpwI0OQQhqt3DgpPFKmT-1" vertex="1">
          <mxGeometry y="80" width="240" height="20" as="geometry" />
        </mxCell>
        <mxCell id="wpwI0OQQhqt3DgpPFKmT-5" value="DELETE" style="text;strokeColor=none;fillColor=none;align=left;verticalAlign=middle;spacingLeft=4;spacingRight=4;overflow=hidden;rotatable=0;points=[[0,0.5],[1,0.5]];portConstraint=eastwest;whiteSpace=wrap;html=1;fontSize=10;fontFamily=Courier New;" parent="wpwI0OQQhqt3DgpPFKmT-1" vertex="1">
          <mxGeometry y="100" width="240" height="20" as="geometry" />
        </mxCell>
        <mxCell id="9212bw_EbjLoRZrMJDlf-98" style="edgeStyle=orthogonalEdgeStyle;rounded=0;orthogonalLoop=1;jettySize=auto;html=1;exitX=0.5;exitY=1;exitDx=0;exitDy=0;entryX=0.5;entryY=0;entryDx=0;entryDy=0;dashed=1;" parent="WIyWlLk6GJQsqaUBKTNV-1" source="9212bw_EbjLoRZrMJDlf-18" target="OGeXfidwOHUhbuxbb3Ev-30" edge="1">
          <mxGeometry relative="1" as="geometry" />
        </mxCell>
        <mxCell id="9212bw_EbjLoRZrMJDlf-18" value="&amp;lt;&amp;lt;enumeration&amp;gt;&amp;gt;&lt;br style=&quot;font-size: 14px;&quot;&gt;State" style="swimlane;fontStyle=1;align=center;verticalAlign=top;childLayout=stackLayout;horizontal=1;startSize=40;horizontalStack=0;resizeParent=1;resizeParentMax=0;resizeLast=0;collapsible=0;marginBottom=0;whiteSpace=wrap;html=1;fontSize=14;" parent="WIyWlLk6GJQsqaUBKTNV-1" vertex="1">
          <mxGeometry x="360" y="390" width="240" height="140" as="geometry" />
        </mxCell>
        <mxCell id="9212bw_EbjLoRZrMJDlf-19" value="AK - Alaska" style="text;strokeColor=none;fillColor=none;align=left;verticalAlign=middle;spacingLeft=4;spacingRight=4;overflow=hidden;rotatable=0;points=[[0,0.5],[1,0.5]];portConstraint=eastwest;whiteSpace=wrap;html=1;fontSize=10;fontFamily=Courier New;" parent="9212bw_EbjLoRZrMJDlf-18" vertex="1">
          <mxGeometry y="40" width="240" height="20" as="geometry" />
        </mxCell>
        <mxCell id="9212bw_EbjLoRZrMJDlf-24" value="AL - Alabama" style="text;strokeColor=none;fillColor=none;align=left;verticalAlign=middle;spacingLeft=4;spacingRight=4;overflow=hidden;rotatable=0;points=[[0,0.5],[1,0.5]];portConstraint=eastwest;whiteSpace=wrap;html=1;fontSize=10;fontFamily=Courier New;" parent="9212bw_EbjLoRZrMJDlf-18" vertex="1">
          <mxGeometry y="60" width="240" height="20" as="geometry" />
        </mxCell>
        <mxCell id="9212bw_EbjLoRZrMJDlf-25" value="AR - Arkansas" style="text;strokeColor=none;fillColor=none;align=left;verticalAlign=middle;spacingLeft=4;spacingRight=4;overflow=hidden;rotatable=0;points=[[0,0.5],[1,0.5]];portConstraint=eastwest;whiteSpace=wrap;html=1;fontSize=10;fontFamily=Courier New;" parent="9212bw_EbjLoRZrMJDlf-18" vertex="1">
          <mxGeometry y="80" width="240" height="20" as="geometry" />
        </mxCell>
        <mxCell id="9212bw_EbjLoRZrMJDlf-20" value="⋮" style="text;strokeColor=none;fillColor=none;align=left;verticalAlign=middle;spacingLeft=4;spacingRight=4;overflow=hidden;rotatable=0;points=[[0,0.5],[1,0.5]];portConstraint=eastwest;whiteSpace=wrap;html=1;fontSize=10;fontStyle=1;fontFamily=Courier New;" parent="9212bw_EbjLoRZrMJDlf-18" vertex="1">
          <mxGeometry y="100" width="240" height="20" as="geometry" />
        </mxCell>
        <mxCell id="9212bw_EbjLoRZrMJDlf-22" value="WY - Wyoming" style="text;strokeColor=none;fillColor=none;align=left;verticalAlign=middle;spacingLeft=4;spacingRight=4;overflow=hidden;rotatable=0;points=[[0,0.5],[1,0.5]];portConstraint=eastwest;whiteSpace=wrap;html=1;fontSize=10;fontFamily=Courier New;" parent="9212bw_EbjLoRZrMJDlf-18" vertex="1">
          <mxGeometry y="120" width="240" height="20" as="geometry" />
        </mxCell>
        <mxCell id="9212bw_EbjLoRZrMJDlf-83" style="edgeStyle=orthogonalEdgeStyle;rounded=0;orthogonalLoop=1;jettySize=auto;html=1;exitX=0;exitY=0.5;exitDx=0;exitDy=0;entryX=1;entryY=0.5;entryDx=0;entryDy=0;" parent="WIyWlLk6GJQsqaUBKTNV-1" source="VrE6sZuMcQ_JEsaJTfix-30" target="OGeXfidwOHUhbuxbb3Ev-79" edge="1">
          <mxGeometry relative="1" as="geometry" />
        </mxCell>
        <mxCell id="9212bw_EbjLoRZrMJDlf-85" style="edgeStyle=orthogonalEdgeStyle;rounded=0;orthogonalLoop=1;jettySize=auto;html=1;exitX=1;exitY=0.5;exitDx=0;exitDy=0;entryX=0;entryY=0.5;entryDx=0;entryDy=0;" parent="WIyWlLk6GJQsqaUBKTNV-1" source="rgos0depHT-uJ3BXyTeP-0" target="OGeXfidwOHUhbuxbb3Ev-79" edge="1">
          <mxGeometry relative="1" as="geometry" />
        </mxCell>
        <mxCell id="9212bw_EbjLoRZrMJDlf-87" style="edgeStyle=orthogonalEdgeStyle;rounded=0;orthogonalLoop=1;jettySize=auto;html=1;exitX=0;exitY=0.5;exitDx=0;exitDy=0;entryX=1;entryY=0.5;entryDx=0;entryDy=0;" parent="WIyWlLk6GJQsqaUBKTNV-1" source="OGeXfidwOHUhbuxbb3Ev-18" target="VrE6sZuMcQ_JEsaJTfix-34" edge="1">
          <mxGeometry relative="1" as="geometry">
            <Array as="points">
              <mxPoint x="960" y="850" />
              <mxPoint x="960" y="260" />
            </Array>
          </mxGeometry>
        </mxCell>
        <mxCell id="9212bw_EbjLoRZrMJDlf-88" style="edgeStyle=orthogonalEdgeStyle;rounded=0;orthogonalLoop=1;jettySize=auto;html=1;exitX=1;exitY=0.5;exitDx=0;exitDy=0;entryX=1;entryY=0.5;entryDx=0;entryDy=0;" parent="WIyWlLk6GJQsqaUBKTNV-1" source="OGeXfidwOHUhbuxbb3Ev-61" target="9212bw_EbjLoRZrMJDlf-27" edge="1">
          <mxGeometry relative="1" as="geometry">
            <Array as="points">
              <mxPoint x="940" y="780" />
              <mxPoint x="940" y="320" />
              <mxPoint x="920" y="320" />
            </Array>
          </mxGeometry>
        </mxCell>
        <mxCell id="9212bw_EbjLoRZrMJDlf-89" style="edgeStyle=orthogonalEdgeStyle;rounded=0;orthogonalLoop=1;jettySize=auto;html=1;exitX=0.5;exitY=0;exitDx=0;exitDy=0;entryX=0.5;entryY=1.008;entryDx=0;entryDy=0;entryPerimeter=0;" parent="WIyWlLk6GJQsqaUBKTNV-1" source="wpwI0OQQhqt3DgpPFKmT-1" target="9212bw_EbjLoRZrMJDlf-28" edge="1">
          <mxGeometry relative="1" as="geometry" />
        </mxCell>
        <mxCell id="9212bw_EbjLoRZrMJDlf-93" style="edgeStyle=orthogonalEdgeStyle;rounded=0;orthogonalLoop=1;jettySize=auto;html=1;exitX=0;exitY=0.5;exitDx=0;exitDy=0;entryX=1;entryY=0.909;entryDx=0;entryDy=0;entryPerimeter=0;" parent="WIyWlLk6GJQsqaUBKTNV-1" source="9212bw_EbjLoRZrMJDlf-18" target="oAeWeOyywlavheIQp_EQ-55" edge="1">
          <mxGeometry relative="1" as="geometry">
            <Array as="points">
              <mxPoint x="300" y="460" />
              <mxPoint x="300" y="540" />
            </Array>
          </mxGeometry>
        </mxCell>
        <mxCell id="9212bw_EbjLoRZrMJDlf-96" style="rounded=0;orthogonalLoop=1;jettySize=auto;html=1;dashed=1;entryX=0.003;entryY=0.403;entryDx=0;entryDy=0;entryPerimeter=0;" parent="WIyWlLk6GJQsqaUBKTNV-1" source="9212bw_EbjLoRZrMJDlf-1" target="VrE6sZuMcQ_JEsaJTfix-33" edge="1">
          <mxGeometry relative="1" as="geometry">
            <mxPoint x="660" y="220" as="targetPoint" />
          </mxGeometry>
        </mxCell>
        <mxCell id="9212bw_EbjLoRZrMJDlf-97" style="edgeStyle=orthogonalEdgeStyle;rounded=0;orthogonalLoop=1;jettySize=auto;html=1;exitX=1;exitY=0.5;exitDx=0;exitDy=0;entryX=0;entryY=0.5;entryDx=0;entryDy=0;" parent="WIyWlLk6GJQsqaUBKTNV-1" source="9212bw_EbjLoRZrMJDlf-31" target="9212bw_EbjLoRZrMJDlf-27" edge="1">
          <mxGeometry relative="1" as="geometry">
            <Array as="points">
              <mxPoint x="660" y="680" />
              <mxPoint x="660" y="320" />
              <mxPoint x="680" y="320" />
            </Array>
          </mxGeometry>
        </mxCell>
      </root>
    </mxGraphModel>
  </diagram>
</mxfile>
